{"title":"Collision S01","uid":10078210,"size":1908907144,"categoryP":"video","categoryS":"tv_shows","magnet":"?xt=urn:btih:fd76d79073211845d8b95e38de2893ec9318ae92&amp;dn=Collision+S01&amp;tr=udp%3A%2F%2Ftracker.openbittorrent.com%3A80&amp;tr=udp%3A%2F%2Fopen.demonii.com%3A1337&amp;tr=udp%3A%2F%2Ftracker.coppersurfer.tk%3A6969&amp;tr=udp%3A%2F%2Fexodus.desync.com%3A6969","seeders":4,"leechers":1,"uploader":"RedBaron58","files":6,"time":1398905717,"description":"Collision Mini-series TV (2009) 5 part 45 minute episodes DVDRip x264 mp4\n  &lt;a href=&quot;\nhttp://www.imdb.com/title/tt1349084/&quot; rel=&quot;nofollow&quot; target=&quot;_NEW&quot;&gt;\nhttp://www.imdb.com/title/tt1349084/&lt;/a&gt;\n\n\nPlease be patient My upload speed is limited, but I am online most the time and during the night.\nThank you for your kind comments and thumbs ups on my other torrents, your feedback is welcome.\n\n\nAbout the Series:\nAs Detective Inspector Tolin (Douglas Henshall) begins the task of sifting through the case files \nhe uncovers the events and twists of fate that led the victims to be on this road at the same time. \nAs the investigations progress he finds himself drawn into many different and dangerous worlds including \ngovernment cover-ups, smuggling, torn relationships and murder.\n\n\nI hope you enjoy.\n\n\nTechnical:\n\nGeneral\nComplete name                            : G:Collision S01Collision S01E01 x264 RB58.mp4\nFormat                                   : MPEG-4\nFormat profile                           : Base Media / Version 2\nCodec ID                                 : mp42\nFile size                                : 345 MiB\nDuration                                 : 45mn 35s\nOverall bit rate mode                    : Variable\nOverall bit rate                         : 1 057 Kbps\nEncoded date                             : UTC 2014-04-28 15:36:35\nTagged date                              : UTC 2014-04-28 15:48:01\nWriting application                      : HandBrake 0.9.8 2012071700\n\nVideo\nID                                       : 1\nFormat                                   : AVC\nFormat/Info                              : Advanced Video Codec\nFormat profile                           : &lt;a class=&quot;__cf_email__&quot; href=&quot;/cdn-cgi/l/email-protection&quot; data-cfemail=&quot;b7fad6ded9f7fb849987&quot;&gt;[email&amp;#160;protected]&lt;/a&gt;&lt;script cf-hash='f9e31' type=&quot;text/javascript&quot;&gt;\n/* &lt;![CDATA[ */!function(){try{var t=&quot;currentScript&quot;in document?document.currentScript:function(){for(var t=document.getElementsByTagName(&quot;script&quot;),e=t.length;e--;)if(t[e].getAttribute(&quot;cf-hash&quot;))return t[e]}();if(t&amp;&amp;t.previousSibling){var e,r,n,i,c=t.previousSibling,a=c.getAttribute(&quot;data-cfemail&quot;);if(a){for(e=&quot;&quot;,r=parseInt(a.substr(0,2),16),n=2;a.length-n;n+=2)i=parseInt(a.substr(n,2),16)^r,e+=String.fromCharCode(i);e=document.createTextNode(e),c.parentNode.replaceChild(e,c)}}}catch(u){}}();/* ]]&gt; */&lt;/script&gt;\nFormat settings, CABAC                   : Yes\nFormat settings, ReFrames                : 4 frames\nCodec ID                                 : avc1\nCodec ID/Info                            : Advanced Video Coding\nDuration                                 : 45mn 35s\nBit rate mode                            : Variable\nBit rate                                 : 900 Kbps\nWidth                                    : 702 pixels\nHeight                                   : 576 pixels\nDisplay aspect ratio                     : 1.733\nFrame rate mode                          : Constant\nFrame rate                               : 25.000 fps\nColor space                              : YUV\nChroma subsampling                       : 4:2:0\nBit depth                                : 8 bits\nScan type                                : Progressive\nBits/(Pixel*Frame)                       : 0.089\nStream size                              : 293 MiB (85%)\nWriting library                          : x264 core 120\nEncoding settings                        : cabac=1 / ref=1 / deblock=1:0:0 \nEncoded date                             : UTC 2014-04-28 15:36:35\nTagged date                              : UTC 2014-04-28 15:48:01\nColor primaries                          : BT.601 NTSC\nTransfer characteristics                 : BT.709\nMatrix coefficients                      : BT.601\n\nAudio\nID                                       : 2\nFormat                                   : MPEG Audio\nFormat version                           : Version 1\nFormat profile                           : Layer 3\nCodec ID                                 : 69\nDuration                                 : 45mn 34s\nBit rate mode                            : Variable\nBit rate                                 : 154 Kbps\nMaximum bit rate                         : 185 Kbps\nChannel(s)                               : 2 channels\nSampling rate                            : 48.0 KHz\nCompression mode                         : Lossy\nDelay relative to video                  : 80ms\nStream size                              : 50.0 MiB (15%)\nLanguage                                 : English\nEncoded date                             : UTC 2014-04-28 15:36:35\nTagged date                              : UTC 2014-04-28 15:47:59","torrent":{"xt":"urn:btih:fd76d79073211845d8b95e38de2893ec9318ae92","amp;dn":"Collision+S01","amp;tr":["udp%3A%2F%2Ftracker.openbittorrent.com%3A80","udp%3A%2F%2Fopen.demonii.com%3A1337","udp%3A%2F%2Ftracker.coppersurfer.tk%3A6969","udp%3A%2F%2Fexodus.desync.com%3A6969"],"infoHash":"fd76d79073211845d8b95e38de2893ec9318ae92","infoHashBuffer":{"type":"Buffer","data":[253,118,215,144,115,33,24,69,216,185,94,56,222,40,147,236,147,24,174,146]},"announce":[],"urlList":[]}}